<svg enable-background="new 0 0 550 550" viewBox="0 0 550 550" xmlns="http://www.w3.org/2000/svg"><path d="m-1 0h582v402h-582z" fill="none"/><path d="m275 20c-141.4 0-256 114.6-256 256s114.6 256 256 256 256-114.6 256-256-114.6-256-256-256zm193.4 265.6c-.6-.1-1.2-.3-1.7-.5-.6-.2-1.2-.3-1.7-.5h-.1c-.6-.2-1.2-.4-1.7-.5h-.2c-.6-.1-1.1-.3-1.7-.4h-.1c-.6-.2-1.1-.3-1.7-.4h-.1c-.6-.1-1.1-.2-1.7-.3h-.1c-.6-.1-1.1-.2-1.7-.3h.1l-1.7-.3h-.1c-.5 0-1-.1-1.6-.2h-.2c-.6-.1-1-.1-1.6-.2h-.2c-.6-.1-1-.1-1.6-.2s-1-.2-1.6-.2h-.2c-.6 0-1-.1-1.6-.1h-.2c-.6 0-1-.1-1.6-.1h-.2c-.5 0-1-.1-1.5-.1h-.2c-.5-.1-1-.1-1.5-.1h-.3-1.5-.3-1.5-.3-1.5-.3-1.4-.3-1.4-.4-1.4.2c-.5.1-.9.1-1.4.1h-.4c-.4.1-.8.1-1.3.1h-.5c-.5 0-.8.1-1.3.1h-.5c-.4 0-.8.1-1.2.1h-.4c-.4 0-.8.1-1.2.1h-.6c-.4 0-.7.1-1.1.1-.3.1-.5.1-.7.1-.3 0-.6.1-.9.1s-.6.1-.9.1c-.3.1-.5.1-.7.1-.6.1-1.2.1-1.7.2-2.7.3-6.1 3.2-7.4 5.8-10.5 19.5-26.2 33-46.4 41-13 5.1-26.5 8.6-40.2 12.9 12.2 11.3 21.6 24.8 24.5 41.3 2.8 15.5 2.9 31.4 4.3 48.3-1 .5-2 .8-3 1.2h-16.8c.9-5.8.6-12-.6-17.6-.8-3.5-5.7-8.3-8.7-8.3s-8.2 5-8.6 8.3c-.7 5.7-.6 11.4-.6 17.6h-18.4c.1-9.7.2-18.8-.6-28-.3-3.5-5.6-8.3-9.3-9.1-2.4-.6-8.6 5.1-8.7 8.3-.7 9.6-.6 19.2-.6 28.9h-18.3c.1-5.5 0-10.8-.6-16.1-.5-3.8-4.9-9-8.4-9.9-6.3-1.7-9.5 3.8-9.8 9.7-.4 5.4-.6 10.9-.3 16.4h-18.8v-38c-8.4 0-16.7.2-25.2-.1-10.9-.5-21.5-2.2-29.6-9.3-1.7-1.5-3.3-3.2-4.8-5.2-11.9-16.4-23.3-33.1-35-49.8 1.1-.1 4-.8 6.8-.5 12 1.5 20.5 8.6 27.6 18 5.8 7.6 12.1 14.4 20.7 17.9 3.2 1.4 6.7 2.2 10.7 2.5 23.9 1.6 44.1-4.1 55.9-27.8-1.3-.2-2.7-.5-4.1-.7-11.9-2.3-23.6-5.1-34.6-9.5-14.9-6-28.1-14.8-37.5-29.1-10.5-16-22.3-19.6-38.8-18.2-5 .4-10.2-.6-15.1.4-11.2 2.4-22.3 5.5-33.3 8.4-.2-1.2-.5-2.4-.6-3.6 23.6-11.7 48.5-10.8 73.9-8.6-5.6-9.5-52.6-10.8-75.8-3.7v-5.5c1.1 0 2.3-.1 3.7-.2 15.9-1.3 31.9-1.9 47.9-2.4 6.5-.2 13.1.7 20.6 1.2-.2-3.4 0-5.3-.4-7.2-4.1-22.4 0-43.6 12.4-62.3 6.7-10.2 8.3-19.1 6-31.2-2.5-13-1.3-26.8-.3-40.1.5-6.5 4.8-10.6 13.2-9.5 16.2 2.1 30.3 8 42.2 19.1 5.3 5 9.9 6.4 17.5 4.2 28.5-8.5 57.2-8 85.6.8 5.6 1.7 9.4 1.1 13.4-3 8.4-8.6 18.4-14.3 29.5-18 2.4-.7 4.9-1.5 7.4-2 15.8-3.7 22.3.1 22.6 16.3.4 14.6-2.6 29.2-3.6 43.9-.3 3.9.1 8.7 2.1 11.8 10.5 15.5 17.2 32.3 17.9 51 .4 8.6-.9 17.4-1.5 25.8h56.1v8.4l-.4-.4-.1-.1-.3-.3-.1-.1-.3-.3-.1-.1c-.1-.2-.3-.3-.4-.4h-.1c-.2-.1-.3-.2-.4-.3l-.1-.1c-.1-.1-.2-.1-.3-.2l-.1-.1c-.1-.1-.2-.2-.3-.2 0-.1-.1-.1-.1-.1-.1-.1-.3-.2-.4-.2-15-4.9-48.5-2.9-53.1 1.7 1 .1 2.1.1 3.1.2 16.4.9 33.6 1.8 52.9 2.9h.6c-.4 2.2-.7 4.5-1.1 6.7-.7.1-1.3-.1-1.9-.3z" fill="#aea4ea"/></svg>