<svg height="550" width="550" xmlns="http://www.w3.org/2000/svg"><path d="m-1-1h582v402h-582z" fill="none"/><circle cx="275" cy="275" fill="#aea4ea" r="256"/><path d="m484.7 292.1c.1 0 .3.1.4.2 0 0 .1 0 .1.1.1 0 .2.1.3.2 0 0 .1.1.1.1.1.1.2.1.3.2 0 0 .1.1.1.1.1.1.2.2.4.3h.1c.1.1.3.2.4.4 0 0 .1.1.1.1l.3.3s.1.1.1.1l.3.3s.1.1.1.1l.4.4v-9.1c-20.6 0-40.6 0-61 0 .6-9.2 2-18.7 1.6-28.1-.8-20.4-8.1-38.6-19.5-55.5-2.2-3.3-2.6-8.6-2.3-12.8 1.1-16 4.3-31.9 3.9-47.8-.4-17.6-7.4-21.7-24.6-17.7-2.7.6-5.4 1.4-8 2.2-12.1 4-23 10.3-32.1 19.6-4.4 4.5-8.5 5.1-14.6 3.3-30.9-9.6-62.1-10.1-93.1-.9-8.2 2.4-13.2.8-19-4.6-12.9-12.1-28.3-18.5-45.9-20.8-9.2-1.2-13.9 3.2-14.4 10.3-1.1 14.5-2.4 29.5.3 43.6 2.5 13.1.8 22.8-6.5 33.9-13.5 20.4-18 43.4-13.5 67.8.4 2 .2 4.1.4 7.8-8.2-.5-15.3-1.5-22.4-1.3-17.4.5-34.8 1.2-52.1 2.6-1.5.1-2.8.2-4 .2v6c25.2-7.8 76.3-6.3 82.4 4-27.7-2.5-54.7-3.4-80.4 9.3.2 1.3.5 2.6.7 3.9 11.9-3.1 24-6.5 36.2-9.1 5.3-1.1 11 0 16.4-.4 17.9-1.5 30.8 2.4 42.2 19.8 10.2 15.6 24.6 25.2 40.8 31.7 11.9 4.7 24.7 7.8 37.6 10.3 1.6.3 3.1.6 4.5.8-12.8 25.7-34.8 31.9-60.8 30.2-4.3-.3-8.1-1.2-11.6-2.7-9.3-3.8-16.2-11.2-22.5-19.5-7.7-10.2-16.9-18-30-19.6-3.1-.4-6.2.4-7.4.5 12.8 18.2 25.2 36.4 38.1 54.2 1.6 2.2 3.3 4.1 5.2 5.7 8.8 7.7 20.3 9.6 32.2 10.1 9.2.3 18.3.1 27.4.1v41.3h20.5c-.3-5.9-.1-11.9.3-17.8.4-6.4 3.8-12.3 10.7-10.5 3.8 1 8.6 6.7 9.1 10.8.7 5.7.8 11.5.7 17.5h19.9c-.1-10.5-.2-21 .6-31.4.2-3.4 6.9-9.6 9.5-9 4 .9 9.8 6.1 10.1 9.9.8 10 .7 20 .6 30.5h20c-.1-6.7-.2-12.9.6-19.1.5-3.6 6.1-9 9.4-9s8.6 5.2 9.5 9c1.4 6.1 1.7 12.8.7 19.1h18.3c1.1-.4 2.2-.8 3.3-1.3-1.5-18.3-1.7-35.6-4.7-52.5-3.1-17.9-13.3-32.6-26.6-44.9 14.9-4.7 29.6-8.4 43.7-14 22-8.7 39.1-23.4 50.5-44.6 1.5-2.8 5.2-6 8.1-6.3.6-.1 1.2-.1 1.9-.2.3 0 .5 0 .8-.1.3 0 .7-.1 1-.1s.7-.1 1-.1.5 0 .8-.1c.4 0 .8-.1 1.2-.1h.7c.4 0 .9-.1 1.3-.1h.6c.4 0 .9-.1 1.3-.1h.5c.5 0 .9-.1 1.4-.1h.5c.5 0 1 0 1.4-.1h.4c.5 0 1 0 1.5-.1h.4 1.5.4 1.5.3 1.5.3 1.6.3 1.6.3 1.6.3c.5 0 1.1 0 1.6.1h.2c.5 0 1.1.1 1.6.1h.2c.6 0 1.1.1 1.7.1h.2c.6 0 1.1.1 1.7.1h.2c.6 0 1.1.1 1.7.2h.2c.6.1 1.1.1 1.7.2h.2c.6.1 1.1.1 1.7.2h.2c.6.1 1.2.2 1.7.2h.1l1.8.3h.1c.6.1 1.2.2 1.8.3h.1c.6.1 1.2.2 1.8.3h.1c.6.1 1.2.2 1.8.4h.1c.6.1 1.2.3 1.8.4h.1c.6.1 1.2.3 1.9.5h.1c.6.2 1.2.3 1.9.5.6.2 1.3.4 1.9.5.6.2 1.3.4 1.9.6.4-2.4.8-4.9 1.2-7.3-.2 0-.4 0-.6 0-21-1.1-39.7-2.1-57.5-3.1-1.1-.1-2.3-.1-3.4-.2 5.1-5 41.5-7.1 57.8-1.8z"/></svg>