<svg width="550" height="550" xmlns="http://www.w3.org/2000/svg">

 <g>
  <title>background</title>
  <rect fill="none" id="canvas_background" height="402" width="582" y="-1" x="-1"/>
 </g>
 <g>
  <title>Layer 1</title>
  <circle id="svg_3" r="256" fill="#aea4ea" cy="275" cx="275"/>
  <path id="svg_4" fill="#000000" d="m484.7,292.1c0.1,0 0.3,0.1 0.4,0.2c0,0 0.1,0 0.1,0.1c0.1,0 0.2,0.1 0.3,0.2c0,0 0.1,0.1 0.1,0.1c0.1,0.1 0.2,0.1 0.3,0.2c0,0 0.1,0.1 0.1,0.1c0.1,0.1 0.2,0.2 0.4,0.3c0,0 0,0 0.1,0c0.1,0.1 0.3,0.2 0.4,0.4c0,0 0.1,0.1 0.1,0.1c0.1,0.1 0.2,0.2 0.3,0.3c0,0 0.1,0.1 0.1,0.1c0.1,0.1 0.2,0.2 0.3,0.3c0,0 0.1,0.1 0.1,0.1c0.1,0.1 0.3,0.3 0.4,0.4l0,-9.1c-20.6,0 -40.6,0 -61,0c0.6,-9.2 2,-18.7 1.6,-28.1c-0.8,-20.4 -8.1,-38.6 -19.5,-55.5c-2.2,-3.3 -2.6,-8.6 -2.3,-12.8c1.1,-16 4.3,-31.9 3.9,-47.8c-0.4,-17.6 -7.4,-21.7 -24.6,-17.7c-2.7,0.6 -5.4,1.4 -8,2.2c-12.1,4 -23,10.3 -32.1,19.6c-4.4,4.5 -8.5,5.1 -14.6,3.3c-30.9,-9.6 -62.1,-10.1 -93.1,-0.9c-8.2,2.4 -13.2,0.8 -19,-4.6c-12.9,-12.1 -28.3,-18.5 -45.9,-20.8c-9.2,-1.2 -13.9,3.2 -14.4,10.3c-1.1,14.5 -2.4,29.5 0.3,43.6c2.5,13.1 0.8,22.8 -6.5,33.9c-13.5,20.4 -18,43.4 -13.5,67.8c0.4,2 0.2,4.1 0.4,7.8c-8.2,-0.5 -15.3,-1.5 -22.4,-1.3c-17.4,0.5 -34.8,1.2 -52.1,2.6c-1.5,0.1 -2.8,0.2 -4,0.2l0,6c25.2,-7.8 76.3,-6.3 82.4,4c-27.7,-2.5 -54.7,-3.4 -80.4,9.3c0.2,1.3 0.5,2.6 0.7,3.9c11.9,-3.1 24,-6.5 36.2,-9.1c5.3,-1.1 11,0 16.4,-0.4c17.9,-1.5 30.8,2.4 42.2,19.8c10.2,15.6 24.6,25.2 40.8,31.7c11.9,4.7 24.7,7.8 37.6,10.3c1.6,0.3 3.1,0.6 4.5,0.8c-12.8,25.7 -34.8,31.9 -60.8,30.2c-4.3,-0.3 -8.1,-1.2 -11.6,-2.7c-9.3,-3.8 -16.2,-11.2 -22.5,-19.5c-7.7,-10.2 -16.9,-18 -30,-19.6c-3.1,-0.4 -6.2,0.4 -7.4,0.5c12.8,18.2 25.2,36.4 38.1,54.2c1.6,2.2 3.3,4.1 5.2,5.7c8.8,7.7 20.3,9.6 32.2,10.1c9.2,0.3 18.3,0.1 27.4,0.1c0,14.4 0,27.9 0,41.3l20.5,0c-0.3,-5.9 -0.1,-11.9 0.3,-17.8c0.4,-6.4 3.8,-12.3 10.7,-10.5c3.8,1 8.6,6.7 9.1,10.8c0.7,5.7 0.8,11.5 0.7,17.5l19.9,0c-0.1,-10.5 -0.2,-21 0.6,-31.4c0.2,-3.4 6.9,-9.6 9.5,-9c4,0.9 9.8,6.1 10.1,9.9c0.8,10 0.7,20 0.6,30.5l20,0c-0.1,-6.7 -0.2,-12.9 0.6,-19.1c0.5,-3.6 6.1,-9 9.4,-9c3.3,0 8.6,5.2 9.5,9c1.4,6.1 1.7,12.8 0.7,19.1l18.3,0c1.1,-0.4 2.2,-0.8 3.3,-1.3c-1.5,-18.3 -1.7,-35.6 -4.7,-52.5c-3.1,-17.9 -13.3,-32.6 -26.6,-44.9c14.9,-4.7 29.6,-8.4 43.7,-14c22,-8.7 39.1,-23.4 50.5,-44.6c1.5,-2.8 5.2,-6 8.1,-6.3c0.6,-0.1 1.2,-0.1 1.9,-0.2c0.3,0 0.5,0 0.8,-0.1c0.3,0 0.7,-0.1 1,-0.1c0.3,0 0.7,-0.1 1,-0.1c0.3,0 0.5,0 0.8,-0.1c0.4,0 0.8,-0.1 1.2,-0.1c0.2,0 0.4,0 0.7,0c0.4,0 0.9,-0.1 1.3,-0.1c0.2,0 0.4,0 0.6,0c0.4,0 0.9,-0.1 1.3,-0.1c0.2,0 0.3,0 0.5,0c0.5,0 0.9,-0.1 1.4,-0.1c0.2,0 0.3,0 0.5,0c0.5,0 1,0 1.4,-0.1c0.1,0 0.3,0 0.4,0c0.5,0 1,0 1.5,-0.1c0.1,0 0.3,0 0.4,0c0.5,0 1,0 1.5,0c0.1,0 0.2,0 0.4,0c0.5,0 1,0 1.5,0c0.1,0 0.2,0 0.3,0c0.5,0 1,0 1.5,0c0.1,0 0.2,0 0.3,0c0.5,0 1,0 1.6,0c0.1,0 0.2,0 0.3,0c0.5,0 1.1,0 1.6,0c0.1,0 0.2,0 0.3,0c0.5,0 1.1,0 1.6,0c0.1,0 0.2,0 0.3,0c0.5,0 1.1,0 1.6,0.1c0.1,0 0.2,0 0.2,0c0.5,0 1.1,0.1 1.6,0.1c0.1,0 0.2,0 0.2,0c0.6,0 1.1,0.1 1.7,0.1c0.1,0 0.1,0 0.2,0c0.6,0 1.1,0.1 1.7,0.1c0.1,0 0.1,0 0.2,0c0.6,0 1.1,0.1 1.7,0.2c0.1,0 0.1,0 0.2,0c0.6,0.1 1.1,0.1 1.7,0.2c0.1,0 0.1,0 0.2,0c0.6,0.1 1.1,0.1 1.7,0.2c0.1,0 0.1,0 0.2,0c0.6,0.1 1.2,0.2 1.7,0.2c0,0 0.1,0 0.1,0c0.6,0.1 1.2,0.2 1.8,0.3c0,0 0.1,0 0.1,0c0.6,0.1 1.2,0.2 1.8,0.3c0,0 0.1,0 0.1,0c0.6,0.1 1.2,0.2 1.8,0.3c0,0 0.1,0 0.1,0c0.6,0.1 1.2,0.2 1.8,0.4c0,0 0.1,0 0.1,0c0.6,0.1 1.2,0.3 1.8,0.4c0,0 0.1,0 0.1,0c0.6,0.1 1.2,0.3 1.9,0.5c0,0 0,0 0.1,0c0.6,0.2 1.2,0.3 1.9,0.5c0,0 0,0 0,0c0.6,0.2 1.3,0.4 1.9,0.5c0,0 0,0 0,0c0.6,0.2 1.3,0.4 1.9,0.6c0.4,-2.4 0.8,-4.9 1.2,-7.3c-0.2,0 -0.4,0 -0.6,0c-21,-1.1 -39.7,-2.1 -57.5,-3.1c-1.1,-0.1 -2.3,-0.1 -3.4,-0.2c5.1,-5 41.5,-7.1 57.8,-1.8z"/>
 </g>
</svg>