<?xml version="1.0" encoding="utf-8"?>
<!-- Generator: Adobe Illustrator 22.1.0, SVG Export Plug-In . SVG Version: 6.00 Build 0)  -->
<svg version="1.1" id="Layer_1" xmlns="http://www.w3.org/2000/svg" xmlns:xlink="http://www.w3.org/1999/xlink" x="0px" y="0px"
	 viewBox="0 0 550 550" style="enable-background:new 0 0 550 550;" xml:space="preserve">
<style type="text/css">
	.st0{fill:none;}
	.st1{fill:#AEA4EA;}
</style>
<path class="st0" d="M-1,0h582v402H-1V0z"/>
<path class="st1" d="M275,20C133.6,20,19,134.6,19,276s114.6,256,256,256s256-114.6,256-256S416.4,20,275,20z M468.4,285.6
	c-0.6-0.1-1.2-0.3-1.7-0.5c-0.6-0.2-1.2-0.3-1.7-0.5h-0.1c-0.6-0.2-1.2-0.4-1.7-0.5H463c-0.6-0.1-1.1-0.3-1.7-0.4h-0.1
	c-0.6-0.2-1.1-0.3-1.7-0.4h-0.1c-0.6-0.1-1.1-0.2-1.7-0.3h-0.1c-0.6-0.1-1.1-0.2-1.7-0.3H456l-1.7-0.3h-0.1c-0.5,0-1-0.1-1.6-0.2
	h-0.2c-0.6-0.1-1-0.1-1.6-0.2h-0.2c-0.6-0.1-1-0.1-1.6-0.2H449c-0.6-0.1-1-0.2-1.6-0.2h-0.2c-0.6,0-1-0.1-1.6-0.1h-0.2
	c-0.6,0-1-0.1-1.6-0.1h-0.2c-0.5,0-1-0.1-1.5-0.1h-0.2c-0.5-0.1-1-0.1-1.5-0.1h-0.3h-1.5h-0.3h-1.5h-0.3h-1.5h-0.3h-1.4h-0.3h-1.4
	h-0.4h-1.4H430c-0.5,0.1-0.9,0.1-1.4,0.1h-0.4c-0.4,0.1-0.8,0.1-1.3,0.1h-0.5c-0.5,0-0.8,0.1-1.3,0.1h-0.5c-0.4,0-0.8,0.1-1.2,0.1
	H423c-0.4,0-0.8,0.1-1.2,0.1h-0.6c-0.4,0-0.7,0.1-1.1,0.1c-0.3,0.1-0.5,0.1-0.7,0.1c-0.3,0-0.6,0.1-0.9,0.1s-0.6,0.1-0.9,0.1
	c-0.3,0.1-0.5,0.1-0.7,0.1c-0.6,0.1-1.2,0.1-1.7,0.2c-2.7,0.3-6.1,3.2-7.4,5.8c-10.5,19.5-26.2,33-46.4,41
	c-13,5.1-26.5,8.6-40.2,12.9c12.2,11.3,21.6,24.8,24.5,41.3c2.8,15.5,2.9,31.4,4.3,48.3c-1,0.5-2,0.8-3,1.2h-16.8
	c0.9-5.8,0.6-12-0.6-17.6c-0.8-3.5-5.7-8.3-8.7-8.3c-3,0-8.2,5-8.6,8.3c-0.7,5.7-0.6,11.4-0.6,17.6h-18.4c0.1-9.7,0.2-18.8-0.6-28
	c-0.3-3.5-5.6-8.3-9.3-9.1c-2.4-0.6-8.6,5.1-8.7,8.3c-0.7,9.6-0.6,19.2-0.6,28.9h-18.3c0.1-5.5,0-10.8-0.6-16.1
	c-0.5-3.8-4.9-9-8.4-9.9c-6.3-1.7-9.5,3.8-9.8,9.7c-0.4,5.4-0.6,10.9-0.3,16.4h-18.8v-38c-8.4,0-16.7,0.2-25.2-0.1
	c-10.9-0.5-21.5-2.2-29.6-9.3c-1.7-1.5-3.3-3.2-4.8-5.2c-11.9-16.4-23.3-33.1-35-49.8c1.1-0.1,4-0.8,6.8-0.5
	c12,1.5,20.5,8.6,27.6,18c5.8,7.6,12.1,14.4,20.7,17.9c3.2,1.4,6.7,2.2,10.7,2.5c23.9,1.6,44.1-4.1,55.9-27.8
	c-1.3-0.2-2.7-0.5-4.1-0.7c-11.9-2.3-23.6-5.1-34.6-9.5c-14.9-6-28.1-14.8-37.5-29.1c-10.5-16-22.3-19.6-38.8-18.2
	c-5,0.4-10.2-0.6-15.1,0.4c-11.2,2.4-22.3,5.5-33.3,8.4c-0.2-1.2-0.5-2.4-0.6-3.6c23.6-11.7,48.5-10.8,73.9-8.6
	c-5.6-9.5-52.6-10.8-75.8-3.7v-5.5c1.1,0,2.3-0.1,3.7-0.2c15.9-1.3,31.9-1.9,47.9-2.4c6.5-0.2,13.1,0.7,20.6,1.2
	c-0.2-3.4,0-5.3-0.4-7.2c-4.1-22.4,0-43.6,12.4-62.3c6.7-10.2,8.3-19.1,6-31.2c-2.5-13-1.3-26.8-0.3-40.1c0.5-6.5,4.8-10.6,13.2-9.5
	c16.2,2.1,30.3,8,42.2,19.1c5.3,5,9.9,6.4,17.5,4.2c28.5-8.5,57.2-8,85.6,0.8c5.6,1.7,9.4,1.1,13.4-3c8.4-8.6,18.4-14.3,29.5-18
	c2.4-0.7,4.9-1.5,7.4-2c15.8-3.7,22.3,0.1,22.6,16.3c0.4,14.6-2.6,29.2-3.6,43.9c-0.3,3.9,0.1,8.7,2.1,11.8
	c10.5,15.5,17.2,32.3,17.9,51c0.4,8.6-0.9,17.4-1.5,25.8c18.8,0,37.1,0,56.1,0v8.4l-0.4-0.4l-0.1-0.1l-0.3-0.3l-0.1-0.1l-0.3-0.3
	l-0.1-0.1c-0.1-0.2-0.3-0.3-0.4-0.4h-0.1c-0.2-0.1-0.3-0.2-0.4-0.3l-0.1-0.1c-0.1-0.1-0.2-0.1-0.3-0.2l-0.1-0.1
	c-0.1-0.1-0.2-0.2-0.3-0.2c0-0.1-0.1-0.1-0.1-0.1c-0.1-0.1-0.3-0.2-0.4-0.2c-15-4.9-48.5-2.9-53.1,1.7c1,0.1,2.1,0.1,3.1,0.2
	c16.4,0.9,33.6,1.8,52.9,2.9c0.2,0,0.4,0,0.6,0c-0.4,2.2-0.7,4.5-1.1,6.7C469.6,286,469,285.8,468.4,285.6z"/>
</svg>
