<?xml version="1.0" encoding="utf-8"?>
<!-- Generator: Adobe Illustrator 22.1.0, SVG Export Plug-In . SVG Version: 6.00 Build 0)  -->
<svg version="1.1" id="Layer_1" xmlns="http://www.w3.org/2000/svg" xmlns:xlink="http://www.w3.org/1999/xlink" x="0px" y="0px"
	 viewBox="0 0 512 512" style="enable-background:new 0 0 512 512;" xml:space="preserve">
<style type="text/css">
	.st0{fill:#55ACEE;}
</style>
<path class="st0" d="M256,0C114.6,0,0,114.6,0,256s114.6,256,256,256s256-114.6,256-256S397.4,0,256,0z M412.8,184L412.8,184
	c-8.2,12.3-18.6,23-30.5,31.7c0.1,2.6,0.2,5.3,0.2,7.9c0,80.9-61.6,174.1-174.1,174.1c-34.6,0-66.7-10.1-93.8-27.5
	c4.8,0.6,9.7,0.9,14.6,0.9c28.7,0,55.1-9.8,76-26.2c-26.8-0.5-49.4-18.2-57.2-42.5c3.7,0.7,7.6,1.1,11.5,1.1c5.6,0,11-0.7,16.1-2.1
	c-28-5.6-49.1-30.3-49.1-60c0-0.3,0-0.5,0-0.8c8.2,4.6,17.7,7.3,27.7,7.7c-16.4-11-27.2-29.7-27.2-50.9c0-11.2,3-21.7,8.3-30.8
	c30.2,37,75.3,61.4,126.1,63.9c-1-4.5-1.6-9.1-1.6-13.9c0-33.8,27.4-61.2,61.2-61.2c17.6,0,33.5,7.4,44.7,19.3
	c13.9-2.7,27-7.8,38.9-14.8c-4.6,14.3-14.3,26.3-26.9,33.8C390,192.1,401.8,188.8,412.8,184L412.8,184L412.8,184z"/>
</svg>
