<svg enable-background="new 0 0 512 512" viewBox="0 0 512 512" xmlns="http://www.w3.org/2000/svg"><path d="m256 0c-141.4 0-256 114.6-256 256s114.6 256 256 256 256-114.6 256-256-114.6-256-256-256zm156.8 184c-8.2 12.3-18.6 23-30.5 31.7.1 2.6.2 5.3.2 7.9 0 80.9-61.6 174.1-174.1 174.1-34.6 0-66.7-10.1-93.8-27.5 4.8.6 9.7.9 14.6.9 28.7 0 55.1-9.8 76-26.2-26.8-.5-49.4-18.2-57.2-42.5 3.7.7 7.6 1.1 11.5 1.1 5.6 0 11-.7 16.1-2.1-28-5.6-49.1-30.3-49.1-60 0-.3 0-.5 0-.8 8.2 4.6 17.7 7.3 27.7 7.7-16.4-11-27.2-29.7-27.2-50.9 0-11.2 3-21.7 8.3-30.8 30.2 37 75.3 61.4 126.1 63.9-1-4.5-1.6-9.1-1.6-13.9 0-33.8 27.4-61.2 61.2-61.2 17.6 0 33.5 7.4 44.7 19.3 13.9-2.7 27-7.8 38.9-14.8-4.6 14.3-14.3 26.3-26.9 33.8 12.3-1.6 24.1-4.9 35.1-9.7z" fill="#55acee"/></svg>