<?xml version="1.0" encoding="utf-8"?>
<!-- Generator: Adobe Illustrator 22.1.0, SVG Export Plug-In . SVG Version: 6.00 Build 0)  -->
<svg version="1.1" id="Layer_1" xmlns="http://www.w3.org/2000/svg" xmlns:xlink="http://www.w3.org/1999/xlink" x="0px" y="0px"
	 viewBox="0 0 1024 1024" style="enable-background:new 0 0 1024 1024;" xml:space="preserve">
<style type="text/css">
	.st0{fill:#4571FF;}
	.st1{fill:#FFFFFF;}
</style>
<path class="st0" d="M512,0C229.2,0,0,229.2,0,512s229.2,512,512,512s512-229.2,512-512S794.8,0,512,0z M834.4,320.9
	c0,3.1-1.9,4.8-5.4,4.8c-17.5,0.8-30.3,4.5-38.8,11.3c-8.4,6.8-15,16.1-19.6,28.3c0,0-108.4,248.3-145.5,330.7
	c-14.1,27.1-28.1,24.6-40.4-0.8c-15.4-31.7-47.3-101.6-70.8-153.2c-25.2,51.7-59.6,121.9-76.5,153.5c-16.5,28.8-30.2,25.1-41,0.8
	c-37.8-88.9-115.2-245.1-151.6-332.6c-6.8-16.1-11.8-26.4-16.6-30.6c-4.8-4-14.9-6.4-30.1-7.3c-5.7-0.6-8.4-2-8.4-4.2v-12.2l1.4-1.1
	c24.8-0.1,144.8,0,144.8,0l1.4,1.1V321c0,3.3-2,4.8-6,4.8l-15.1,0.6c-13,0.5-19.4,4.4-19.4,11.6c0,3.4,1.4,8.8,4.4,16.1
	c29.1,70.6,129.3,282,129.3,282l3.7,1l64.6-128.8c-7.9-17.4-13-28.6-13-28.6l-44.4-87.2c0,0-8.6-17.5-11.5-23.3
	c-19.5-38.7-19-40.7-38.8-43.3c-5.5-0.8-8.4-1.4-8.4-4.2v-12.2l1.6-1.1H499l3,1v12.2c0,2.8-2,4.2-6,4.2l-8.3,1.1
	c-21,1.6-17.6,10.3-3.7,38.1l42.6,87.1l47.1-94c7.9-17.1,6.3-21.4,3-25.4c-1.9-2.3-8.2-5.9-21.8-6.4l-5.4-0.6
	c-1.4,0-2.6-0.5-3.9-1.4c-1.1-0.9-1.8-2-1.8-3.4v-11.6l1.6-1.1c33.4-0.3,108.3,0,108.3,0l1.4,1.3v11.5c0,3.1-1.9,4.8-5.4,4.8
	c-17.5,0.8-21,2.5-27.4,11.7c-3.5,5-10.3,15.9-17.5,27.9l-61.3,114.6c0,0-0.6,1.4-1.8,3.7l74.9,153.2l4.5,1.3l118-279.9
	c4.2-11.3,3.5-19.4-1.8-24c-5.3-4.5-8.9-7.3-22.7-7.8l-11.1-0.5c-1.4,0-2.6-0.5-3.9-1.4c-1.3-0.9-1.9-2-1.9-3.4v-11.7l1.6-1.1h133.2
	h0h0l1.8,1.3V320.9z"/>
<path class="st1" d="M-176-181.5l-1.6,1.1v11.7c0,1.4,0.6,2.5,1.9,3.4c1.3,0.9,2.5,1.4,3.9,1.4l11.1,0.5c13.7,0.5,17.4,3.3,22.7,7.8
	c5.3,4.7,5.9,12.7,1.8,24l-118,279.9l-4.5-1.3L-333.8-6.1c1.1-2.3,1.8-3.7,1.8-3.7l61.3-114.6c7.2-12.1,14-22.9,17.5-27.9
	c6.4-9.2,9.9-11,27.4-11.7c3.5,0,5.4-1.6,5.4-4.8v-11.5l-1.4-1.3c0,0-74.9-0.3-108.3,0l-1.6,1.1v11.6c0,1.4,0.6,2.5,1.8,3.4
	c1.3,0.9,2.5,1.4,3.9,1.4l5.4,0.6c13.6,0.5,19.9,4.2,21.8,6.4c3.3,4,4.9,8.3-3,25.4l-47.1,94l-42.6-87.1
	c-14-27.8-17.4-36.5,3.7-38.1l8.3-1.1c4,0,6-1.4,6-4.2v-12.2l-3-1h-114.9l-1.6,1.1v12.2c0,2.8,2.9,3.4,8.4,4.2
	c19.8,2.6,19.3,4.7,38.8,43.3c2.9,5.8,11.5,23.3,11.5,23.3l44.4,87.2c0,0,5,11.2,13,28.6l-64.6,128.8l-3.7-1
	c0,0-100.2-211.4-129.3-282c-3-7.3-4.4-12.7-4.4-16.1c0-7.2,6.4-11.1,19.4-11.6l15.1-0.6c4,0,6-1.5,6-4.8v-11.6l-1.4-1.1
	c0,0-120-0.1-144.8,0l-1.4,1.1v12.2c0,2.1,2.8,3.5,8.4,4.2c15.2,0.9,25.3,3.3,30.1,7.3c4.8,4.2,9.8,14.5,16.6,30.6
	c36.4,87.5,113.8,243.7,151.6,332.6c10.8,24.3,24.6,28.1,41-0.8c17-31.6,51.4-101.7,76.5-153.5c23.4,51.6,55.4,121.5,70.8,153.2
	c12.3,25.3,26.3,27.8,40.4,0.8c37.1-82.5,145.5-330.7,145.5-330.7c4.7-12.2,11.2-21.5,19.6-28.3c8.4-6.8,21.3-10.6,38.8-11.3
	c3.5,0,5.4-1.6,5.4-4.8v-11.5l-1.8-1.3H-176z"/>
</svg>
